<svg width="28" height="28" viewBox="0 0 28 28" fill="none" xmlns="http://www.w3.org/2000/svg">
<path d="M25.8667 0.666504H2.13332C1.74434 0.666504 1.37129 0.821027 1.09623 1.09608C0.82118 1.37113 0.666656 1.74419 0.666656 2.13317V25.8665C0.666656 26.2555 0.82118 26.6285 1.09623 26.9036C1.37129 27.1786 1.74434 27.3332 2.13332 27.3332H14.9067V16.9998H11.44V12.9998H14.9067V9.99984C14.8348 9.29551 14.918 8.58401 15.1503 7.91522C15.3826 7.24643 15.7583 6.63656 16.2513 6.12839C16.7442 5.62021 17.3424 5.22603 18.0038 4.97349C18.6652 4.72095 19.3738 4.61617 20.08 4.6665C21.1178 4.66012 22.155 4.71354 23.1867 4.8265V8.4265H21.0667C19.3867 8.4265 19.0667 9.2265 19.0667 10.3865V12.9598H23.0667L22.5467 16.9598H19.0667V27.3332H25.8667C26.0593 27.3332 26.25 27.2952 26.4279 27.2215C26.6059 27.1478 26.7676 27.0398 26.9037 26.9036C27.0399 26.7674 27.148 26.6057 27.2217 26.4278C27.2954 26.2498 27.3333 26.0591 27.3333 25.8665V2.13317C27.3333 1.94056 27.2954 1.74985 27.2217 1.5719C27.148 1.39396 27.0399 1.23227 26.9037 1.09608C26.7676 0.959888 26.6059 0.851854 26.4279 0.778147C26.25 0.70444 26.0593 0.666504 25.8667 0.666504Z" fill="#4DA195"/>
</svg>
