<svg width="28" height="28" viewBox="0 0 28 28" fill="none" xmlns="http://www.w3.org/2000/svg">
<path d="M15.3707 0.668144C16.3436 0.664411 17.3166 0.67419 18.2893 0.697478L18.548 0.706811C18.8467 0.717478 19.1413 0.730811 19.4973 0.746811C20.916 0.813478 21.884 1.03748 22.7333 1.36681C23.6133 1.70548 24.3547 2.16414 25.096 2.90548C25.7738 3.57162 26.2984 4.37741 26.6333 5.26681C26.9627 6.11614 27.1867 7.08548 27.2533 8.50414C27.2693 8.85881 27.2827 9.15481 27.2933 9.45348L27.3013 9.71214C27.325 10.6844 27.3352 11.6569 27.332 12.6295L27.3333 13.6241V15.3708C27.3366 16.3438 27.3264 17.3168 27.3027 18.2895L27.2947 18.5481C27.284 18.8468 27.2707 19.1415 27.2547 19.4975C27.188 20.9161 26.9613 21.8841 26.6333 22.7335C26.2995 23.6238 25.7748 24.4303 25.096 25.0961C24.4293 25.7739 23.6231 26.2985 22.7333 26.6335C21.884 26.9628 20.916 27.1868 19.4973 27.2535C19.1413 27.2695 18.8467 27.2828 18.548 27.2935L18.2893 27.3015C17.3166 27.3252 16.3436 27.3354 15.3707 27.3321L14.376 27.3335H12.6307C11.6577 27.3368 10.6847 27.3265 9.712 27.3028L9.45333 27.2948C9.13681 27.2833 8.82036 27.27 8.504 27.2548C7.08533 27.1881 6.11733 26.9615 5.26666 26.6335C4.37691 26.2993 3.57098 25.7746 2.90533 25.0961C2.22672 24.4299 1.70163 23.6236 1.36666 22.7335C1.03733 21.8841 0.813329 20.9161 0.746663 19.4975C0.731813 19.1811 0.71848 18.8647 0.706663 18.5481L0.699996 18.2895C0.675414 17.3168 0.664302 16.3438 0.666663 15.3708V12.6295C0.662942 11.6569 0.67272 10.6844 0.695996 9.71214L0.70533 9.45348C0.715996 9.15481 0.72933 8.85881 0.74533 8.50414C0.811996 7.08414 1.036 6.11748 1.36533 5.26681C1.70049 4.37697 2.22661 3.5714 2.90666 2.90681C3.57186 2.22781 4.37728 1.70224 5.26666 1.36681C6.11733 1.03748 7.084 0.813478 8.504 0.746811L9.45333 0.706811L9.712 0.700145C10.6842 0.675575 11.6568 0.664463 12.6293 0.666811L15.3707 0.668144ZM14 7.33481C13.1167 7.32232 12.2397 7.48551 11.42 7.8149C10.6003 8.14429 9.85419 8.63332 9.22512 9.25355C8.59605 9.87379 8.09653 10.6129 7.75558 11.4278C7.41463 12.2428 7.23905 13.1174 7.23905 14.0008C7.23905 14.8842 7.41463 15.7588 7.75558 16.5738C8.09653 17.3888 8.59605 18.1278 9.22512 18.7481C9.85419 19.3683 10.6003 19.8573 11.42 20.1867C12.2397 20.5161 13.1167 20.6793 14 20.6668C15.7681 20.6668 17.4638 19.9644 18.714 18.7142C19.9643 17.4639 20.6667 15.7683 20.6667 14.0001C20.6667 12.232 19.9643 10.5363 18.714 9.2861C17.4638 8.03586 15.7681 7.33481 14 7.33481ZM14 10.0015C14.5313 9.99169 15.0593 10.0879 15.5531 10.2844C16.0468 10.481 16.4964 10.7739 16.8757 11.1462C17.255 11.5185 17.5562 11.9626 17.7619 12.4526C17.9676 12.9426 18.0736 13.4687 18.0737 14.0001C18.0738 14.5316 17.968 15.0577 17.7624 15.5478C17.5569 16.0378 17.2558 16.4821 16.8767 16.8545C16.4975 17.2269 16.048 17.52 15.5543 17.7167C15.0606 17.9134 14.5327 18.0098 14.0013 18.0001C12.9405 18.0001 11.923 17.5787 11.1729 16.8286C10.4228 16.0784 10.0013 15.061 10.0013 14.0001C10.0013 12.9393 10.4228 11.9219 11.1729 11.1717C11.923 10.4216 12.9405 10.0001 14.0013 10.0001L14 10.0015ZM21 5.33481C20.5699 5.35203 20.1631 5.53501 19.8648 5.84544C19.5666 6.15587 19.4 6.56966 19.4 7.00014C19.4 7.43063 19.5666 7.84442 19.8648 8.15485C20.1631 8.46528 20.5699 8.64826 21 8.66548C21.442 8.66548 21.8659 8.48988 22.1785 8.17732C22.4911 7.86476 22.6667 7.44084 22.6667 6.99881C22.6667 6.55678 22.4911 6.13286 22.1785 5.8203C21.8659 5.50774 21.442 5.33214 21 5.33214V5.33481Z" fill="#4DA195"/>
</svg>
