<svg width="26" height="26" viewBox="0 0 26 26" fill="none" xmlns="http://www.w3.org/2000/svg">
<path d="M12.3333 25.3332C11.6765 25.3351 11.0258 25.2066 10.419 24.9551C9.81216 24.7036 9.26131 24.3342 8.79833 23.8682L2.13167 17.2015C1.18667 16.2582 0.666666 15.0015 0.666666 13.6665C0.666666 12.3315 1.18667 11.0749 2.13167 10.1299C4.02 8.24155 7.31333 8.24155 9.20167 10.1299L11.1817 12.1099L16.2967 2.90488C16.7763 2.03972 17.5019 1.33635 18.3815 0.883799C19.2611 0.431253 20.2553 0.249891 21.238 0.362676C22.2208 0.475461 23.148 0.87732 23.9022 1.51737C24.6565 2.15743 25.2038 3.00689 25.475 3.95821C25.6577 4.58958 25.713 5.25096 25.6377 5.90389C25.5625 6.55682 25.3582 7.18828 25.0367 7.76154L16.7033 22.7615C16.2683 23.5391 15.6344 24.1871 14.8665 24.639C14.0986 25.0909 13.2243 25.3305 12.3333 25.3332ZM5.66667 11.9999C5.22 11.9999 4.80333 12.1732 4.48833 12.4882C4.17333 12.8032 4 13.2199 4 13.6665C4 14.1132 4.17333 14.5299 4.48833 14.8449L11.155 21.5115C11.3377 21.6933 11.5599 21.8302 11.8043 21.9118C12.0488 21.9933 12.3088 22.0171 12.5639 21.9815C12.8191 21.9458 13.0626 21.8516 13.2753 21.7061C13.488 21.5607 13.6642 21.3681 13.79 21.1432L22.1233 6.14321C22.2303 5.95227 22.2984 5.742 22.3236 5.52457C22.3487 5.30715 22.3305 5.08689 22.27 4.87654C22.2102 4.66532 22.109 4.46811 21.9722 4.29642C21.8355 4.12473 21.6659 3.98199 21.4733 3.87654C21.0861 3.66986 20.6337 3.62178 20.2117 3.74244C19.7897 3.8631 19.4311 4.14307 19.2117 4.52321L11.95 17.5915L6.84667 12.4882C6.69196 12.3329 6.50803 12.2098 6.3055 12.126C6.10298 12.0422 5.88585 11.9993 5.66667 11.9999Z" fill="#4DA195"/>
</svg>
