<svg width="16" height="20" viewBox="0 0 16 20" fill="none" xmlns="http://www.w3.org/2000/svg">
<path fill-rule="evenodd" clip-rule="evenodd" d="M5 5C5 4.20435 5.31607 3.44129 5.87868 2.87868C6.44129 2.31607 7.20435 2 8 2C8.79565 2 9.55871 2.31607 10.1213 2.87868C10.6839 3.44129 11 4.20435 11 5V7H5V5ZM3 7V5C3 3.67392 3.52678 2.40215 4.46447 1.46447C5.40215 0.526784 6.67392 0 8 0C9.32608 0 10.5979 0.526784 11.5355 1.46447C12.4732 2.40215 13 3.67392 13 5V7H15C15.2652 7 15.5196 7.10536 15.7071 7.29289C15.8946 7.48043 16 7.73478 16 8V17C16 17.7956 15.6839 18.5587 15.1213 19.1213C14.5587 19.6839 13.7956 20 13 20H3C2.20435 20 1.44129 19.6839 0.87868 19.1213C0.316071 18.5587 0 17.7956 0 17V8C0 7.73478 0.105357 7.48043 0.292893 7.29289C0.48043 7.10536 0.734784 7 1 7H3ZM9 13.5C9 13.1022 9.15804 12.7206 9.43934 12.4393C9.72064 12.158 10.1022 12 10.5 12H10.51C10.9078 12 11.2894 12.158 11.5707 12.4393C11.852 12.7206 12.01 13.1022 12.01 13.5V13.51C12.01 13.9078 11.852 14.2894 11.5707 14.5707C11.2894 14.852 10.9078 15.01 10.51 15.01H10.5C10.1022 15.01 9.72064 14.852 9.43934 14.5707C9.15804 14.2894 9 13.9078 9 13.51V13.5Z" fill="#122724"/>
</svg>
