<svg width="36" height="35" viewBox="0 0 36 35" fill="none" xmlns="http://www.w3.org/2000/svg">
<path d="M19.8375 13.6325L14.5 9.62499V25.375L19.8375 21.3675L25 17.5L19.8375 13.6325ZM19.8375 13.6325L14.5 9.62499V25.375L19.8375 21.3675L25 17.5L19.8375 13.6325ZM19.8375 13.6325L14.5 9.62499V25.375L19.8375 21.3675L25 17.5L19.8375 13.6325ZM16.25 3.62249V0.0874939C12.7325 0.437494 9.52999 1.83749 6.93999 3.95499L9.42499 6.45749C11.4024 4.9138 13.7608 3.93415 16.25 3.62249ZM6.95749 8.92499L4.45499 6.43999C2.27591 9.09402 0.930329 12.3332 0.587494 15.75H4.12249C4.43749 13.195 5.45249 10.8675 6.95749 8.92499ZM4.12249 19.25H0.587494C0.937494 22.7675 2.33749 25.97 4.45499 28.56L6.95749 26.0575C5.41112 24.0883 4.43097 21.7347 4.12249 19.25ZM6.93999 31.045C9.59575 33.2212 12.834 34.5664 16.25 34.9125V31.3775C13.7608 31.0658 11.4024 30.0862 9.42499 28.5425L6.93999 31.045ZM35.5 17.5C35.5 26.53 28.64 33.985 19.8375 34.9125V31.3775C26.6975 30.4675 32 24.5875 32 17.5C32 10.4125 26.6975 4.53249 19.8375 3.62249V0.0874939C28.64 1.01499 35.5 8.46999 35.5 17.5Z" fill="#040404"/>
</svg>
