<svg width="27" height="36" viewBox="0 0 27 36" fill="none" xmlns="http://www.w3.org/2000/svg">
<path d="M13.4377 27.2823C14.3207 27.2823 15.1676 26.9315 15.7919 26.3071C16.4163 25.6828 16.7671 24.8359 16.7671 23.9529C16.7671 23.0699 16.4163 22.223 15.7919 21.5986C15.1676 20.9743 14.3207 20.6235 13.4377 20.6235C12.5547 20.6235 11.7078 20.9743 11.0834 21.5986C10.4591 22.223 10.1083 23.0699 10.1083 23.9529C10.1083 24.8359 10.4591 25.6828 11.0834 26.3071C11.7078 26.9315 12.5547 27.2823 13.4377 27.2823ZM23.4259 12.3C24.3089 12.3 25.1558 12.6507 25.7802 13.2751C26.4046 13.8995 26.7553 14.7464 26.7553 15.6294V32.2764C26.7553 33.1594 26.4046 34.0063 25.7802 34.6307C25.1558 35.2551 24.3089 35.6058 23.4259 35.6058H3.44947C2.56645 35.6058 1.7196 35.2551 1.09522 34.6307C0.470832 34.0063 0.120056 33.1594 0.120056 32.2764V15.6294C0.120056 14.7464 0.470832 13.8995 1.09522 13.2751C1.7196 12.6507 2.56645 12.3 3.44947 12.3H5.11417V8.97056C5.11417 6.76302 5.99111 4.6459 7.55207 3.08494C9.11304 1.52397 11.2302 0.647034 13.4377 0.647034C14.5308 0.647034 15.6131 0.862328 16.623 1.28062C17.6328 1.69892 18.5504 2.31203 19.3233 3.08494C20.0962 3.85785 20.7093 4.77543 21.1276 5.78528C21.5459 6.79514 21.7612 7.8775 21.7612 8.97056V12.3H23.4259ZM13.4377 3.97644C12.1132 3.97644 10.8429 4.50261 9.90632 5.43918C8.96974 6.37576 8.44358 7.64603 8.44358 8.97056V12.3H18.4318V8.97056C18.4318 7.64603 17.9056 6.37576 16.9691 5.43918C16.0325 4.50261 14.7622 3.97644 13.4377 3.97644Z" fill="#3D8177"/>
</svg>
