<svg width="38" height="34" viewBox="0 0 38 34" fill="none" xmlns="http://www.w3.org/2000/svg">
<path fill-rule="evenodd" clip-rule="evenodd" d="M2.16562 0.311707C1.72411 0.311707 1.30069 0.487094 0.988496 0.799287C0.676303 1.11148 0.500916 1.5349 0.500916 1.97641V25.2823C0.500916 27.5363 1.99416 29.4407 4.04507 30.0633C4.35038 31.0705 4.96606 31.9554 5.80421 32.5919C6.64236 33.2283 7.66015 33.5837 8.71229 33.6073C9.76443 33.631 10.7971 33.3216 11.663 32.7234C12.5289 32.1252 13.1837 31.2688 13.5339 30.2764H24.0898C24.44 31.2688 25.0948 32.1252 25.9606 32.7234C26.8265 33.3216 27.8592 33.631 28.9114 33.6073C29.9635 33.5837 30.9813 33.2283 31.8195 32.5919C32.6576 31.9554 33.2733 31.0705 33.5786 30.0633C34.6043 29.7522 35.5028 29.1195 36.1413 28.2585C36.7798 27.3976 37.1245 26.3541 37.1244 25.2823V18.6235C37.1244 17.5304 36.9091 16.448 36.4908 15.4382C36.0725 14.4283 35.4594 13.5107 34.6865 12.7378C33.9136 11.9649 32.996 11.3518 31.9862 10.9335C30.9763 10.5152 29.894 10.2999 28.8009 10.2999H22.1421V1.97641C22.1421 1.5349 21.9667 1.11148 21.6545 0.799287C21.3423 0.487094 20.9189 0.311707 20.4774 0.311707H2.16562ZM24.0914 26.947H22.1421V13.6293H28.8009C30.1254 13.6293 31.3957 14.1555 32.3323 15.0921C33.2688 16.0287 33.795 17.2989 33.795 18.6235V25.2823C33.7952 25.5009 33.7523 25.7174 33.6685 25.9194C33.5848 26.1214 33.4621 26.3048 33.3072 26.4592C32.8817 25.5677 32.2012 24.8224 31.352 24.3176C30.5027 23.8129 29.5229 23.5713 28.5364 23.6235C27.5498 23.6757 26.6009 24.0194 25.8097 24.6109C25.0185 25.2025 24.4205 26.0155 24.0914 26.947ZM7.64749 27.4347C7.80106 27.2757 7.98475 27.1489 8.18785 27.0617C8.39095 26.9744 8.60939 26.9285 8.83043 26.9266C9.05147 26.9247 9.27067 26.9668 9.47526 27.0505C9.67985 27.1342 9.86571 27.2578 10.022 27.4141C10.1783 27.5704 10.3019 27.7563 10.3856 27.9609C10.4693 28.1654 10.5115 28.3847 10.5095 28.6057C10.5076 28.8267 10.4617 29.0452 10.3744 29.2483C10.2872 29.4514 10.1604 29.6351 10.0014 29.7886C9.68742 30.0919 9.26691 30.2597 8.83043 30.2559C8.39395 30.2521 7.97642 30.077 7.66777 29.7683C7.35912 29.4597 7.18404 29.0422 7.18025 28.6057C7.17646 28.1692 7.34425 27.7487 7.64749 27.4347ZM27.1362 28.6117C27.1362 28.1702 27.3116 27.7467 27.6238 27.4346C27.936 27.1224 28.3594 26.947 28.8009 26.947C29.2424 26.947 29.6658 27.1224 29.978 27.4346C30.2902 27.7467 30.4656 28.1702 30.4656 28.6117C30.4656 29.0532 30.2902 29.4766 29.978 29.7888C29.6658 30.101 29.2424 30.2764 28.8009 30.2764C28.3594 30.2764 27.936 30.101 27.6238 29.7888C27.3116 29.4766 27.1362 29.0532 27.1362 28.6117Z" fill="#3D8177"/>
</svg>
